<svg id="Glyph" xmlns="http://www.w3.org/2000/svg" viewBox="0 0 64 64"><path d="M32,4.07231a28.03073,28.03073,0,0,0-28,28c1.537,37.146,54.46866,37.13516,56-.00021A28.03076,28.03076,0,0,0,32,4.07231ZM48.81,40.48225C42.24439,54.51439,21.775,54.5161,15.21,40.482c-3.7423.44674-7.352-2.27778-7.3-5.73975-.00006-2.99,2.56994-5.46,5.84-5.76a18.7203,18.7203,0,0,1,13.76-14.54,6.21936,6.21936,0,0,1,12.37,1.21,18.6916,18.6916,0,0,1,10.39,13.33C58.92415,30.11238,57.38,41.15489,48.81,40.48225Z"/><path d="M37.87,14.84226a4.23717,4.23717,0,0,0-8.24-.79987A18.33463,18.33463,0,0,1,37.87,14.84226Z"/><path d="M49.59993,30.95229a1.054,1.054,0,0,1-1.18-.86007,16.6331,16.6331,0,0,0-8.98-12.43,6.23151,6.23151,0,0,1-5.77,3.87,1,1,0,0,1,0-2,4.214,4.214,0,0,0,3.92005-2.67,16.45764,16.45764,0,0,0-9.23-.57,16.70507,16.70507,0,0,0-12.79,13.9,1.03591,1.03591,0,0,1-1.15.76c-6.88984.38728-5.29194,8.6556,1.18008,7.44a1.048,1.048,0,0,1,1.05991.45,16.60984,16.60984,0,0,0,15.35,10.23c7.00894.06979,12.75-4.32363,15.5997-10.50017a1.02984,1.02984,0,0,1,.80023-.17979C54.84037,39.6198,56.48888,31.35307,49.59993,30.95229ZM26.06,31.84224a1.88511,1.88511,0,0,1,.00008-3.77A1.88511,1.88511,0,0,1,26.06,31.84224Zm12.09,6.26a5.98648,5.98648,0,0,1-9.48,0,.99722.99722,0,0,1,1.57-1.23,4.22259,4.22259,0,0,0,3.31,1.55,4.14368,4.14368,0,0,0,3.02-1.55A1.00142,1.00142,0,0,1,38.15,38.10225Zm1.09-6.26a1.88524,1.88524,0,0,1,.00008-3.77A1.88524,1.88524,0,0,1,39.24,31.84224Z"/></svg>